<?xml version="1.0" standalone="no"?><!DOCTYPE svg PUBLIC "-//W3C//DTD SVG 1.1//EN" "http://www.w3.org/Graphics/SVG/1.1/DTD/svg11.dtd"><svg t="1626022392860" class="icon" viewBox="0 0 1194 1024" version="1.1" xmlns="http://www.w3.org/2000/svg" p-id="1098" xmlns:xlink="http://www.w3.org/1999/xlink" width="233.203125" height="200"><defs><style type="text/css"></style></defs><path d="M0 938.666667c0-51.2 34.133333-85.333333 85.333333-85.333334h1024c51.2 0 85.333333 34.133333 85.333334 85.333334s-34.133333 85.333333-85.333334 85.333333h-1024c-42.666667 0-85.333333-34.133333-85.333333-85.333333z m0-426.666667c0-51.2 34.133333-85.333333 85.333333-85.333333h1024c51.2 0 85.333333 34.133333 85.333334 85.333333s-34.133333 85.333333-85.333334 85.333333h-1024c-42.666667 0-85.333333-34.133333-85.333333-85.333333z m0-426.666667c0-51.2 34.133333-85.333333 85.333333-85.333333h1024c51.2 0 85.333333 34.133333 85.333334 85.333333s-34.133333 85.333333-85.333334 85.333334h-1024c-42.666667 0-85.333333-34.133333-85.333333-85.333334z" fill="#ffffff" p-id="1099"></path></svg>