<?xml version="1.0" standalone="no"?><!DOCTYPE svg PUBLIC "-//W3C//DTD SVG 1.1//EN" "http://www.w3.org/Graphics/SVG/1.1/DTD/svg11.dtd"><svg t="1620105419029" class="icon" viewBox="0 0 4239 1024" version="1.1" xmlns="http://www.w3.org/2000/svg" p-id="823" xmlns:xlink="http://www.w3.org/1999/xlink" width="827.9296875" height="200"><defs><style type="text/css"></style></defs><path d="M1855.904237 183.763437l-99.754667 332.415052c-9.468207 20.933215-23.89997 38.252089-43.282014 51.970844s-37.006222 20.577659-52.887704 20.57766h-363.807289l-68.064711 207.896651h-197.066904l175.267082-582.547911-26.062697-30.311348h675.658904z m-464.431407 103.940741l-56.408178 197.066903h218.7264l66.156089-197.066903h-228.474311zM2131.403852 339.689244l-143.384652 456.933452h-207.881481l138.02477-426.622103-26.062696-30.311349h239.304059z m5.538133-31.407407h-198.162963l32.786015-124.5184h207.896652l-42.519704 124.5184zM2758.331733 443.629985h-332.415052l-85.067851 249.0368h290.193066l59.225126-41.141096-46.162489 145.096059H2103.808l153.10317-456.933452h530.578015l-29.157452 103.941689zM3133.151763 183.763437l-162.282193 508.903348h249.0368l158.018371-478.592948-36.877274-30.311348h250.118637l-191.441541 612.859259h-592.2816c-20.933215 0-35.427556-6.858904-43.4688-20.577659-8.054519-13.718756-10.230519-31.036681-6.539378-51.970845l162.474667-510.000355-26.061748-30.311348h239.304059zM4239.11443 339.689244l-119.748267 384.384949c-3.361185 10.829748-8.679348 20.577659-15.982933 29.229511-7.305481 8.667022-15.680474 16.252207-25.121186 22.740385-9.442607 6.503348-18.999941 11.55603-28.659674 15.17037-9.674904 3.615289-18.465185 5.407289-26.405926 5.407289h-258.785659L3688.58643 1024h-207.881482l211.482548-652.918519-24.776059-31.392237h571.702993z m-361.571556 103.940741l-84.608 258.785659h125.600237l83.541333-258.785659h-124.53357z" fill="#23A8E0" p-id="824"></path><path d="M795.692563 414.983585c-28.700444-143.86157-151.807052-253.805037-303.49843-253.805037-118.954667 0-221.425778 67.72243-270.646044 169.244445C94.291437 347.265896 0 453.054578 0 584.227081 0 723.822933 110.7712 837.916444 246.097541 837.916444h139.174874V657.688652H272.362193c-17.761659 0-26.721659-21.313422-14.367289-33.972148l219.793066-226.588445a19.872237 19.872237 0 0 1 28.731734 0l219.792118 226.588445c12.353422 12.658726 3.241719 33.972148-14.367289 33.972148H599.035259V837.916444h180.175645c114.801778 0 205.061689-93.100563 205.061689-211.463585 0.116622-109.944415-85.985659-203.047822-188.58003-211.469274z" fill="#23A8E0" p-id="825"></path></svg>